<svg width="152" height="52" viewBox="0 0 152 52" fill="none" xmlns="http://www.w3.org/2000/svg">
<circle cx="50.5" cy="14.5" r="4.5" fill="#E42469"/>
<path d="M8.72963 28.9894L0.688843 1.00423H5.9578L10.9958 20.8186L15.948 1.00423H20.0272L24.952 20.8186L30.0364 1.00423H35.3053L27.2182 28.9894H22.8368L17.9645 10.3595L13.1487 28.9894H8.72963Z" fill="#00A1F1"/>
<path fill-rule="evenodd" clip-rule="evenodd" d="M67.9993 0.732782V28.9894H72.9953V18.5303H73.1653L80.5305 28.9894H86.857L78.9253 18.5303C81.1915 18.3411 83.0234 17.3766 84.4397 15.7122C85.8372 14.01 86.5549 12.0052 86.5549 9.69773C86.5549 6.91746 85.6295 4.74242 83.7976 3.13478C81.9658 1.52714 79.3408 0.732782 75.9414 0.732782H67.9993ZM72.9953 14.1802V5.74483H76.0925C77.6977 5.74483 78.963 6.10418 79.8884 6.78506C80.8138 7.48486 81.3048 8.54401 81.3237 9.96251C81.3237 11.4188 80.8516 12.478 79.9073 13.1589C78.963 13.8398 77.6977 14.1802 76.0925 14.1802H72.9953Z" fill="#00A1F1"/>
<path d="M90.0039 28.9894V1.00705H95.4465V12.9887L104.209 1.00705H110.347L99.7523 14.6341L110.328 28.9894H104.209L95.4465 16.62V28.9894H90.0039Z" fill="#00A1F1"/>
<path d="M112.999 28.9962V25.0068H116.996V28.9962H112.999Z" fill="#00A1F1"/>
<path d="M133.002 14.0076V28.9893H129.678V27.5897H129.622C129.131 28.195 128.564 28.6489 127.903 28.9893C127.242 29.3109 126.525 29.4811 125.713 29.4811C123.673 29.4811 122.143 28.8569 121.123 27.5897C120.104 26.3226 119.613 24.488 119.632 22.086V14.0076H123.257V21.5942C123.239 23.164 123.484 24.2988 123.994 25.0175C124.504 25.7362 125.278 26.0767 126.336 26.0767C127.356 26.0956 128.13 25.7362 128.64 25.0175C129.15 24.2988 129.395 23.164 129.395 21.5942V14.0076H133.002Z" fill="#00A1F1"/>
<path fill-rule="evenodd" clip-rule="evenodd" d="M150.995 28.9893V14.0041H147.671V16.0526H147.615C147.067 15.2015 146.368 14.5584 145.537 14.1045C144.706 13.6695 143.762 13.4425 142.704 13.4425C140.608 13.4425 138.833 14.218 137.398 15.7689C135.963 17.3198 135.245 19.2679 135.245 21.6131C135.245 23.9584 135.963 25.8686 137.417 27.325C138.852 28.7813 140.589 29.5 142.591 29.5C143.554 29.4811 144.461 29.2541 145.348 28.8569C146.236 28.4598 146.973 27.8167 147.615 26.9656H147.671V28.9893H150.995ZM140.098 18.1709C140.91 17.282 141.968 16.828 143.271 16.828C144.555 16.828 145.594 17.263 146.406 18.1331C147.199 19.0031 147.596 20.1 147.596 21.4051C147.596 22.8047 147.199 23.9206 146.406 24.7717C145.613 25.6228 144.574 26.0578 143.29 26.0578C141.968 26.0578 140.892 25.6228 140.079 24.7906C139.249 23.9584 138.852 22.8803 138.871 21.5753C138.871 20.2135 139.286 19.0787 140.098 18.1709Z" fill="#00A1F1"/>
<path fill-rule="evenodd" clip-rule="evenodd" d="M50.5 29C58.5081 29 65 22.5081 65 14.5C65 6.49187 58.5081 0 50.5 0C42.4919 0 36 6.49187 36 14.5C36 22.5081 42.4919 29 50.5 29ZM50.5 24C55.7467 24 60 19.7467 60 14.5C60 9.25329 55.7467 5 50.5 5C45.2533 5 41 9.25329 41 14.5C41 19.7467 45.2533 24 50.5 24Z" fill="#00A1F1"/>
<path d="M8.4209 41.0874H12.7764V47.4009H13.4209V49.9155H12.5762V48.2456H7.84473V49.9155H7V47.4009H7.55664C8.13281 46.5317 8.4209 44.7756 8.4209 42.1323V41.0874ZM11.8291 41.9321H9.33398V42.2983C9.33398 42.9071 9.27865 43.7404 9.16797 44.7983C9.06055 45.853 8.84733 46.7205 8.52832 47.4009H11.8291V41.9321ZM17.2713 41.0874H21.7537V48.2456H20.8064V41.9321H18.2186V45.6187C18.2186 46.3674 18.1827 46.9159 18.1111 47.2642C18.0428 47.6125 17.8963 47.8843 17.6717 48.0796C17.4471 48.2716 17.1622 48.3677 16.8172 48.3677C16.6089 48.3677 16.3582 48.3286 16.0652 48.2505L16.2264 47.4106C16.3826 47.4757 16.5161 47.5083 16.6268 47.5083C16.8416 47.5083 17.0027 47.4285 17.1102 47.269C17.2176 47.1063 17.2713 46.7254 17.2713 46.1265V41.0874ZM31.1754 48.2456V41.0874H28.0016C27.3635 41.0874 26.8785 41.1525 26.5465 41.2827C26.2145 41.4097 25.9492 41.6359 25.7506 41.9614C25.552 42.2869 25.4527 42.6466 25.4527 43.0405C25.4527 43.5483 25.6171 43.9764 25.9459 44.3247C26.2747 44.673 26.7825 44.8944 27.4693 44.9888C27.2187 45.1092 27.0283 45.228 26.898 45.3452C26.6214 45.5991 26.3593 45.9165 26.1119 46.2974L24.8668 48.2456H26.0582L27.0055 46.7563C27.2822 46.3267 27.51 45.9979 27.6891 45.77C27.8681 45.5422 28.0276 45.3826 28.1676 45.2915C28.3108 45.2004 28.4557 45.1369 28.6021 45.1011C28.7096 45.0783 28.8854 45.0669 29.1295 45.0669H30.2281V48.2456H31.1754ZM30.2281 44.2466H28.192C27.759 44.2466 27.4205 44.2026 27.1764 44.1147C26.9322 44.0236 26.7467 43.8804 26.6197 43.6851C26.4928 43.4865 26.4293 43.2716 26.4293 43.0405C26.4293 42.702 26.5514 42.4237 26.7955 42.2056C27.0429 41.9875 27.4319 41.8784 27.9625 41.8784H30.2281V44.2466ZM39.9211 48.2456V41.0874H42.6213C43.0965 41.0874 43.4595 41.1102 43.7102 41.1558C44.0617 41.2144 44.3563 41.3267 44.5939 41.4927C44.8316 41.6554 45.022 41.8849 45.1652 42.1812C45.3117 42.4774 45.385 42.8029 45.385 43.1577C45.385 43.7664 45.1913 44.2824 44.8039 44.7056C44.4165 45.1255 43.7167 45.3354 42.7043 45.3354H40.8684V48.2456H39.9211ZM40.8684 44.4907H42.7189C43.3309 44.4907 43.7655 44.3768 44.0227 44.1489C44.2798 43.9211 44.4084 43.6004 44.4084 43.187C44.4084 42.8875 44.3319 42.632 44.1789 42.4204C44.0292 42.2056 43.8306 42.064 43.5832 41.9956C43.4237 41.9533 43.1291 41.9321 42.6994 41.9321H40.8684V44.4907ZM47.3311 48.2456L50.0801 41.0874H51.1006L54.0303 48.2456H52.9512L52.1162 46.0776H49.123L48.3369 48.2456H47.3311ZM49.3965 45.3062H51.8232L51.0762 43.3237C50.8483 42.7215 50.679 42.2267 50.5684 41.8394C50.4772 42.2983 50.3486 42.7541 50.1826 43.2065L49.3965 45.3062ZM57.0311 41.0874H61.6746V41.9321H57.9783V44.1392H59.6873C60.3188 44.1392 60.8201 44.1994 61.1912 44.3198C61.5656 44.4403 61.865 44.6681 62.0896 45.0034C62.3143 45.3354 62.4266 45.7228 62.4266 46.1655C62.4266 46.5269 62.3452 46.8654 62.1824 47.1812C62.0229 47.4937 61.7837 47.7492 61.4646 47.9478C61.1456 48.1463 60.602 48.2456 59.8338 48.2456H57.0311V41.0874ZM57.9783 47.4399H59.8729C60.3839 47.4399 60.7664 47.3358 61.0203 47.1274C61.2775 46.9191 61.4061 46.6066 61.4061 46.1899C61.4061 45.8937 61.3328 45.6463 61.1863 45.4478C61.0398 45.2492 60.8364 45.1174 60.576 45.0522C60.3156 44.9871 59.8712 44.9546 59.243 44.9546H57.9783V47.4399ZM65.3443 44.7593C65.3443 43.5711 65.6633 42.6418 66.3014 41.9712C66.9394 41.2974 67.763 40.9604 68.7721 40.9604C69.4329 40.9604 70.0286 41.1183 70.5592 41.4341C71.0898 41.7498 71.4934 42.1909 71.7701 42.7573C72.0501 43.3205 72.19 43.9601 72.19 44.6763C72.19 45.4022 72.0436 46.0516 71.7506 46.6245C71.4576 47.1974 71.0426 47.632 70.5055 47.9282C69.9684 48.2212 69.3889 48.3677 68.7672 48.3677C68.0934 48.3677 67.4911 48.2049 66.9605 47.8794C66.4299 47.5539 66.0279 47.1095 65.7545 46.5464C65.4811 45.9832 65.3443 45.3875 65.3443 44.7593ZM66.3209 44.7739C66.3209 45.6366 66.552 46.3169 67.0143 46.8149C67.4798 47.3097 68.0624 47.5571 68.7623 47.5571C69.4752 47.5571 70.0611 47.3065 70.5201 46.8052C70.9824 46.3039 71.2135 45.5926 71.2135 44.6714C71.2135 44.0887 71.1142 43.5809 70.9156 43.1479C70.7203 42.7118 70.4322 42.3748 70.0514 42.1372C69.6738 41.8963 69.249 41.7759 68.777 41.7759C68.1064 41.7759 67.5286 42.007 67.0436 42.4692C66.5618 42.9282 66.3209 43.6965 66.3209 44.7739ZM77.4369 48.2456V41.9321H75.0785V41.0874H80.7523V41.9321H78.3842V48.2456H77.4369ZM83.1916 44.7593C83.1916 43.5711 83.5106 42.6418 84.1486 41.9712C84.7867 41.2974 85.6102 40.9604 86.6193 40.9604C87.2801 40.9604 87.8758 41.1183 88.4064 41.4341C88.937 41.7498 89.3407 42.1909 89.6174 42.7573C89.8973 43.3205 90.0373 43.9601 90.0373 44.6763C90.0373 45.4022 89.8908 46.0516 89.5979 46.6245C89.3049 47.1974 88.8898 47.632 88.3527 47.9282C87.8156 48.2212 87.2362 48.3677 86.6145 48.3677C85.9406 48.3677 85.3384 48.2049 84.8078 47.8794C84.2772 47.5539 83.8752 47.1095 83.6018 46.5464C83.3283 45.9832 83.1916 45.3875 83.1916 44.7593ZM84.1682 44.7739C84.1682 45.6366 84.3993 46.3169 84.8615 46.8149C85.327 47.3097 85.9097 47.5571 86.6096 47.5571C87.3225 47.5571 87.9084 47.3065 88.3674 46.8052C88.8296 46.3039 89.0607 45.5926 89.0607 44.6714C89.0607 44.0887 88.9615 43.5809 88.7629 43.1479C88.5676 42.7118 88.2795 42.3748 87.8986 42.1372C87.521 41.8963 87.0962 41.7759 86.6242 41.7759C85.9536 41.7759 85.3758 42.007 84.8908 42.4692C84.4091 42.9282 84.1682 43.6965 84.1682 44.7739ZM93.8877 41.0874H98.2432V47.4009H98.8877V49.9155H98.043V48.2456H93.3115V49.9155H92.4668V47.4009H93.0234C93.5996 46.5317 93.8877 44.7756 93.8877 42.1323V41.0874ZM97.2959 41.9321H94.8008V42.2983C94.8008 42.9071 94.7454 43.7404 94.6348 44.7983C94.5273 45.853 94.3141 46.7205 93.9951 47.4009H97.2959V41.9321ZM101.429 48.2456L104.179 41.0874H105.199L108.129 48.2456H107.05L106.215 46.0776H103.221L102.435 48.2456H101.429ZM103.495 45.3062H105.922L105.175 43.3237C104.947 42.7215 104.777 42.2267 104.667 41.8394C104.576 42.2983 104.447 42.7541 104.281 43.2065L103.495 45.3062ZM112.126 48.2456V41.9321H109.767V41.0874H115.441V41.9321H113.073V48.2456H112.126ZM118.637 48.2456V41.0874H123.813V41.9321H119.584V44.1245H123.544V44.9644H119.584V47.4009H123.979V48.2456H118.637ZM128.01 41.0874H132.492V48.2456H131.545V41.9321H128.957V45.6187C128.957 46.3674 128.921 46.9159 128.85 47.2642C128.781 47.6125 128.635 47.8843 128.41 48.0796C128.186 48.2716 127.901 48.3677 127.556 48.3677C127.348 48.3677 127.097 48.3286 126.804 48.2505L126.965 47.4106C127.121 47.4757 127.255 47.5083 127.365 47.5083C127.58 47.5083 127.741 47.4285 127.849 47.269C127.956 47.1063 128.01 46.7254 128.01 46.1265V41.0874ZM136.27 48.2456V41.0874H141.445V41.9321H137.217V44.1245H141.177V44.9644H137.217V47.4009H141.611V48.2456H136.27ZM145.135 41.0874H145.994V46.7563L149.803 41.0874H150.755V48.2456H149.895V42.5913L146.082 48.2456H145.135V41.0874ZM148.694 39.3833H149.295C149.246 39.7902 149.096 40.1027 148.846 40.3208C148.598 40.5389 148.268 40.6479 147.854 40.6479C147.438 40.6479 147.104 40.5405 146.853 40.3257C146.606 40.1076 146.458 39.7935 146.409 39.3833H147.01C147.055 39.6047 147.145 39.7707 147.278 39.8813C147.415 39.9888 147.597 40.0425 147.825 40.0425C148.089 40.0425 148.287 39.9904 148.421 39.8862C148.557 39.7788 148.649 39.6112 148.694 39.3833Z" fill="#E42469"/>
</svg>
