<svg width="19" height="19" viewBox="0 0 19 19" fill="none" xmlns="http://www.w3.org/2000/svg">
<path d="M18.024 16.1681L13.6466 11.7904C14.4971 10.5743 15 9.09713 15 7.5C15 3.35775 11.6423 0 7.5 0C3.35775 0 0 3.35775 0 7.5C0 11.6423 3.35775 15 7.5 15C9.09675 15 10.5743 14.4971 11.7904 13.6466L16.1681 18.0244L18.024 16.1681ZM2.625 7.5C2.625 4.812 4.81163 2.625 7.5 2.625C10.188 2.625 12.375 4.812 12.375 7.5C12.375 10.188 10.188 12.375 7.5 12.375C4.81163 12.375 2.625 10.188 2.625 7.5Z" fill="#6B7886"/>
</svg>
